<?xml version="1.0" encoding="UTF-8"?>
<svg width="87px" height="24px" viewBox="0 0 87 24" version="1.1" xmlns="http://www.w3.org/2000/svg" xmlns:xlink="http://www.w3.org/1999/xlink">
    <!-- Generator: Sketch 49.2 (51160) - http://www.bohemiancoding.com/sketch -->
    <title>Group 2 Copy</title>
    <desc>Created with Sketch.</desc>
    <defs></defs>
    <g id="Exploration-v1" stroke="none" stroke-width="1" fill="none" fill-rule="evenodd">
        <g id="member-01b-copy" transform="translate(-32.000000, -15.000000)">
            <g id="Group-2-Copy" transform="translate(32.000000, 15.000000)">
                <g id="Group">
                    <path d="M36.0165827,16.5505556 C35.5411353,16.9103333 34.7334962,17.0898889 33.5926842,17.0898889 L30.7410902,17.0898889 L30.7410902,12.9381111 L33.6334586,12.9381111 C34.679094,12.9381111 35.4565338,13.0974444 35.9657782,13.4156667 C36.4749135,13.7343333 36.7294812,14.2531111 36.7294812,14.9727778 C36.7294812,15.6647778 36.491703,16.1906667 36.0165827,16.5505556 Z M30.7410902,6.81422222 L33.7760602,6.81422222 C34.7537744,6.81422222 35.4595865,6.97011111 35.8944774,7.28133333 C36.3287143,7.59277778 36.5462143,8.07366667 36.5462143,8.724 C36.5462143,9.42988889 36.3118158,9.94233333 35.8434549,10.2602222 C35.3747669,10.5787778 34.6927218,10.7377778 33.7964474,10.7377778 L30.7410902,10.7377778 L30.7410902,6.81422222 Z M37.1164023,11.8378889 C37.7953947,11.5613333 38.3081278,11.1463333 38.6543835,10.5926667 C39.0007481,10.0391111 39.1736579,9.31933333 39.1736579,8.43355556 C39.1736579,7.20177778 38.739094,6.25755556 37.8701842,5.60011111 C37.0009474,4.943 35.6091654,4.61377778 33.6945113,4.61377778 L28.1338158,4.61377778 L28.1338158,19.4151111 L33.9389398,19.4151111 C35.8129286,19.4151111 37.2012218,19.0484444 38.1043647,18.315 C39.0072895,17.5813333 39.4589699,16.5434444 39.4589699,15.201 C39.4589699,14.2875556 39.2584774,13.5645556 38.8580376,13.0318889 C38.4573797,12.4992222 37.8768346,12.1011111 37.1164023,11.8378889 Z" id="Fill-1" fill="#0F233F"></path>
                    <path d="M45.1320677,8.091 C44.500391,8.56855556 44.0692068,9.29866667 43.838406,10.2812222 L43.4921504,7.47877778 L41.3331767,7.47877778 L41.3331767,19.4151111 L43.9607293,19.4151111 L43.9607293,13.8932222 C43.9607293,12.9662222 44.0523083,12.2292222 44.2356842,11.6824444 C44.4190602,11.1358889 44.7549586,10.7448889 45.2439248,10.5094444 C45.4884624,10.385 45.7868571,10.2916667 46.1400902,10.2291111 C46.4929962,10.1668889 46.9006316,10.1357778 47.3622331,10.1357778 L48.5233233,10.1357778 L48.5233233,7.375 L47.7288759,7.375 C46.6288383,7.375 45.7634173,7.61377778 45.1320677,8.091" id="Fill-2" fill="#0F233F"></path>
                    <path d="M52.0472594,12.3155556 C52.1962932,11.3746667 52.5565038,10.6444444 53.1266917,10.1256667 C53.6969887,9.60644444 54.4435752,9.34711111 55.3672143,9.34711111 C56.3042632,9.34711111 57.0204323,9.61355556 57.5162669,10.1462222 C58.0116654,10.6793333 58.3071165,11.402 58.4022932,12.3155556 L52.0472594,12.3155556 Z M59.7261541,9.03555556 C59.2645526,8.46844444 58.6702707,8.01822222 57.9440714,7.68611111 C57.2175451,7.354 56.351688,7.18788889 55.3469361,7.18788889 C54.1246842,7.18788889 53.0688008,7.44433333 52.1797218,7.956 C51.2899887,8.46844444 50.6009662,9.18811111 50.112,10.1151111 C49.8675714,10.5855556 49.6844135,11.0942222 49.5620902,11.6407778 C49.4398759,12.1876667 49.3788233,12.7792222 49.3788233,13.4156667 L49.3788233,13.7065556 C49.3788233,15.5471111 49.8675714,17.0105556 50.8455038,18.0967778 C51.823,19.1834444 53.2963308,19.7266667 55.2653872,19.7266667 C56.7997707,19.7266667 58.038812,19.3874444 58.9827293,18.7093333 C59.9265376,18.0315556 60.5681353,17.0898889 60.9075226,15.886 L58.0356504,15.886 C57.8318872,16.3983333 57.5127782,16.7927778 57.0782143,17.0693333 C56.6435414,17.3463333 56.0731353,17.4846667 55.3672143,17.4846667 C54.4029098,17.4846667 53.6324474,17.2218889 53.055391,16.6956667 C52.4781165,16.1701111 52.1353496,15.4226667 52.0267632,14.4536667 L61.0705113,14.4536667 L61.0705113,13.1873333 C61.0705113,12.4264444 60.9617068,11.6861111 60.7447519,10.966 C60.5273609,10.2466667 60.1876466,9.60311111 59.7261541,9.03555556 Z" id="Fill-3" fill="#0F233F"></path>
                    <path d="M70.9697594,14.0176667 C70.9697594,14.5855556 70.8169098,15.149 70.5115376,15.7097778 C70.2060564,16.2702222 69.7680038,16.7304444 69.1977068,17.0898889 C68.9125038,17.2703333 68.6036429,17.4052222 68.270797,17.4947778 C67.9380602,17.5852222 67.5816654,17.6297778 67.2017218,17.6297778 C66.5905414,17.6297778 66.1322105,17.5053333 65.8266203,17.256 C65.5212481,17.0071111 65.3682895,16.6333333 65.3682895,16.1352222 C65.3682895,15.8724444 65.4259624,15.637 65.5415263,15.4293333 C65.6566541,15.2216667 65.829891,15.0422222 66.0609098,14.8896667 C66.3323759,14.7101111 66.6479962,14.5678889 67.0079887,14.4642222 C67.3676541,14.3603333 67.9009925,14.2531111 68.6070226,14.1425556 C69.1366541,14.0593333 69.6015263,13.9555556 70.0022932,13.831 C70.4027331,13.7065556 70.7254398,13.5543333 70.9697594,13.3741111 L70.9697594,14.0176667 Z M71.3771767,7.70711111 C70.996797,7.52722222 70.5554737,7.39555556 70.0533158,7.31277778 C69.5506128,7.22955556 68.9803158,7.18788889 68.3422068,7.18788889 C66.6720902,7.18788889 65.3614211,7.59988889 64.4111805,8.423 C63.4603947,9.24666667 62.9374135,10.3366667 62.8426729,11.6928889 L65.5925489,11.6928889 C65.6332143,10.932 65.8845113,10.3434444 66.3461128,9.92811111 C66.8074962,9.51311111 67.5205038,9.30544444 68.4848083,9.30544444 C69.3944925,9.30544444 70.0328195,9.45088889 70.3995714,9.74144444 C70.7662143,10.0318889 70.9493722,10.4266667 70.9493722,10.9247778 C70.9493722,11.4091111 70.7219511,11.7517778 70.267218,11.9522222 C69.8120489,12.1532222 69.0618647,12.3225556 68.0163383,12.4608889 C67.2831617,12.5718889 66.6786316,12.6757778 66.2034023,12.7721111 C65.7281729,12.8691111 65.3207556,12.9796667 64.9813684,13.1045556 C64.8183797,13.1596667 64.6520113,13.229 64.4822632,13.3118889 C64.312406,13.3951111 64.1462556,13.4922222 63.9832669,13.6027778 C63.5079286,13.9071111 63.1344173,14.3052222 62.8630602,14.7962222 C62.5912669,15.2876667 62.4556429,15.8653333 62.4556429,16.5296667 C62.4556429,17.4985556 62.7780226,18.2733333 63.423109,18.8547778 C64.0679774,19.4357778 65.0220338,19.7266667 66.2848421,19.7266667 C67.4934662,19.7266667 68.4950564,19.4702222 69.2893947,18.9585556 C70.0838421,18.4464444 70.6774699,17.8028889 71.0716955,17.0277778 L71.3568985,19.4151111 L73.5159812,19.4151111 L73.5159812,11.3607778 C73.5159812,10.5026667 73.3495038,9.762 73.0168759,9.13944444 C72.6840301,8.51677778 72.137609,8.03922222 71.3771767,7.70711111 Z" id="Fill-4" fill="#0F233F"></path>
                    <path d="M84.4741654,13.4778889 C84.4741654,14.6546667 84.1855827,15.5886667 83.6087444,16.2806667 C83.0312519,16.9726667 82.2470526,17.3185556 81.2560376,17.3185556 C80.3730639,17.3185556 79.6468647,16.9966667 79.0765677,16.353 C78.5060526,15.7097778 78.2210677,14.7516667 78.2210677,13.4778889 L78.2210677,13.2496667 C78.2210677,12.0594444 78.4924248,11.1321111 79.0356842,10.4678889 C79.5787256,9.80366667 80.3527857,9.47155556 81.3578647,9.47155556 C82.3218421,9.47155556 83.0821654,9.81744444 83.6391617,10.5094444 C84.1959398,11.2017778 84.4741654,12.1221111 84.4741654,13.2705556 L84.4741654,13.4778889 Z M84.4133308,3.43077778 L84.4133308,9.53377778 C84.0735075,8.80055556 83.5811617,8.22966667 82.9365113,7.82111111 C82.2913158,7.41322222 81.4867293,7.20888889 80.5227519,7.20888889 C79.5313008,7.20888889 78.6554135,7.43722222 77.8953083,7.89377778 C77.1343308,8.35077778 76.5436466,9.02211111 76.1229286,9.90744444 C75.9056466,10.3505556 75.7425489,10.8487778 75.6341805,11.402 C75.5251579,11.9556667 75.4711917,12.5575556 75.4711917,13.208 L75.4711917,13.4988889 C75.4711917,15.5054444 75.9259248,17.0347778 76.8359361,18.0866667 C77.7455113,19.1385556 78.9473759,19.6643333 80.441094,19.6643333 C81.4867293,19.6643333 82.345718,19.4084444 83.0178421,18.8963333 C83.6900752,18.3843333 84.182094,17.7268889 84.4946617,16.9238889 L84.7797556,19.4151111 L87,19.4151111 L87,3.43077778 L84.4133308,3.43077778 Z" id="Fill-5" fill="#0F233F"></path>
                    <path d="M7.32566165,12.5173333 C6.91780827,12.4085556 4.15822932,11.6435556 4.15822932,8.928 C4.15822932,8.928 13.3144887,11.4323333 13.6320714,11.5152222 C13.9496541,11.5981111 16.7850038,12.4043333 16.7850038,15.1005556 C16.7850038,15.1005556 7.73340602,12.6263333 7.32566165,12.5173333 Z M10.4753233,0.029 C7.31148872,0.029 5.05352256,0.993666667 5.05352256,1.96933333 L5.05330451,1.96888889 C5.05330451,2.35333333 5.30416541,2.54866667 5.71376316,2.66022222 C6.60077068,2.90177778 13.1836617,4.68188889 13.6178985,4.81877778 C14.1406617,4.98344444 16.7799887,5.68166667 16.7854398,8.40044444 L16.7779173,8.39333333 C16.7779173,8.39333333 4.04299248,4.87166667 3.14726316,4.671 C2.53150376,4.533 2.05790977,4.657 1.73672932,4.98422222 C0.956454887,5.77955556 0,9.44055556 0,12.0468889 C0,18.9858889 4.15822932,24 10.4682368,24 C13.6320714,24 15.8900376,23.0353333 15.8900376,22.0597778 C15.8900376,21.6753333 15.6393947,21.4798889 15.229688,21.3683333 C14.3426805,21.127 7.76611278,19.3246667 7.32566165,19.21 C6.88521053,19.0951111 4.15757519,18.3458889 4.15757519,15.6204444 L17.796297,19.358 C18.4121654,19.496 18.8856504,19.3721111 19.2067218,19.0447778 C19.9871053,18.2494444 20.9435602,14.5884444 20.9435602,11.9821111 C20.9435602,5.04322222 16.7853308,0.029 10.4753233,0.029 Z" id="Fill-7" fill="#5156EA"></path>
                </g>
            </g>
        </g>
    </g>
</svg>